<svg xmlns="http://www.w3.org/2000/svg" xmlns:xlink="http://www.w3.org/1999/xlink" width="803" zoomAndPan="magnify" viewBox="0 0 602.25 257.250001" height="343" preserveAspectRatio="xMidYMid meet" version="1.2"><defs><clipPath id="73bba4509b"><path d="M 187.839844 13.820312 L 430.132812 13.820312 L 430.132812 256.113281 L 187.839844 256.113281 Z M 187.839844 13.820312 "/></clipPath><clipPath id="dda7992c53"><path d="M 308.984375 13.820312 C 242.078125 13.820312 187.839844 68.058594 187.839844 134.964844 C 187.839844 201.875 242.078125 256.113281 308.984375 256.113281 C 375.894531 256.113281 430.132812 201.875 430.132812 134.964844 C 430.132812 68.058594 375.894531 13.820312 308.984375 13.820312 Z M 308.984375 13.820312 "/></clipPath><clipPath id="60794f84f9"><path d="M 68.730469 81.394531 L 145.074219 81.394531 L 145.074219 157.738281 L 68.730469 157.738281 Z M 68.730469 81.394531 "/></clipPath><clipPath id="b0ddc3f90c"><path d="M 106.902344 81.394531 C 85.820312 81.394531 68.730469 98.484375 68.730469 119.566406 C 68.730469 140.648438 85.820312 157.738281 106.902344 157.738281 C 127.984375 157.738281 145.074219 140.648438 145.074219 119.566406 C 145.074219 98.484375 127.984375 81.394531 106.902344 81.394531 Z M 106.902344 81.394531 "/></clipPath></defs><g id="3eea531aef"><g clip-rule="nonzero" clip-path="url(#73bba4509b)"><g clip-rule="nonzero" clip-path="url(#dda7992c53)"><path style=" stroke:none;fill-rule:nonzero;fill:#f5ba27;fill-opacity:1;" d="M 187.839844 13.820312 L 430.132812 13.820312 L 430.132812 256.113281 L 187.839844 256.113281 Z M 187.839844 13.820312 "/></g></g><g style="fill:#000000;fill-opacity:1;"><g transform="translate(65.454701, 156.29192)"><path style="stroke:none" d="M 41.765625 0.734375 C 34.765625 0.734375 28.347656 -0.890625 22.515625 -4.140625 C 16.691406 -7.390625 12.066406 -11.925781 8.640625 -17.75 C 5.210938 -23.582031 3.5 -30.140625 3.5 -37.421875 C 3.5 -44.703125 5.210938 -51.238281 8.640625 -57.03125 C 12.066406 -62.820312 16.691406 -67.34375 22.515625 -70.59375 C 28.347656 -73.84375 34.765625 -75.46875 41.765625 -75.46875 C 48.765625 -75.46875 55.175781 -73.84375 61 -70.59375 C 66.832031 -67.34375 71.425781 -62.820312 74.78125 -57.03125 C 78.132812 -51.238281 79.8125 -44.703125 79.8125 -37.421875 C 79.8125 -30.140625 78.113281 -23.582031 74.71875 -17.75 C 71.332031 -11.925781 66.742188 -7.390625 60.953125 -4.140625 C 55.160156 -0.890625 48.765625 0.734375 41.765625 0.734375 Z M 41.765625 -15.796875 C 47.703125 -15.796875 52.453125 -17.773438 56.015625 -21.734375 C 59.585938 -25.691406 61.375 -30.921875 61.375 -37.421875 C 61.375 -43.992188 59.585938 -49.238281 56.015625 -53.15625 C 52.453125 -57.082031 47.703125 -59.046875 41.765625 -59.046875 C 35.753906 -59.046875 30.960938 -57.097656 27.390625 -53.203125 C 23.828125 -49.316406 22.046875 -44.054688 22.046875 -37.421875 C 22.046875 -30.847656 23.828125 -25.597656 27.390625 -21.671875 C 30.960938 -17.753906 35.753906 -15.796875 41.765625 -15.796875 Z M 41.765625 -15.796875 "/></g></g><g style="fill:#000000;fill-opacity:1;"><g transform="translate(148.762141, 156.29192)"><path style="stroke:none" d="M 39.53125 -15.375 L 39.53125 0 L 30.3125 0 C 23.738281 0 18.613281 -1.601562 14.9375 -4.8125 C 11.269531 -8.03125 9.4375 -13.28125 9.4375 -20.5625 L 9.4375 -44.09375 L 2.21875 -44.09375 L 2.21875 -59.140625 L 9.4375 -59.140625 L 9.4375 -73.5625 L 27.5625 -73.5625 L 27.5625 -59.140625 L 39.4375 -59.140625 L 39.4375 -44.09375 L 27.5625 -44.09375 L 27.5625 -20.359375 C 27.5625 -18.585938 27.984375 -17.3125 28.828125 -16.53125 C 29.679688 -15.757812 31.097656 -15.375 33.078125 -15.375 Z M 39.53125 -15.375 "/></g></g><g style="fill:#000000;fill-opacity:1;"><g transform="translate(191.793722, 156.29192)"><path style="stroke:none" d="M 33.5 0.84375 C 27.695312 0.84375 22.484375 -0.390625 17.859375 -2.859375 C 13.234375 -5.335938 9.59375 -8.875 6.9375 -13.46875 C 4.289062 -18.0625 2.96875 -23.429688 2.96875 -29.578125 C 2.96875 -35.648438 4.3125 -41 7 -45.625 C 9.6875 -50.257812 13.359375 -53.8125 18.015625 -56.28125 C 22.679688 -58.757812 27.910156 -60 33.703125 -60 C 39.503906 -60 44.734375 -58.757812 49.390625 -56.28125 C 54.054688 -53.8125 57.734375 -50.257812 60.421875 -45.625 C 63.109375 -41 64.453125 -35.648438 64.453125 -29.578125 C 64.453125 -23.492188 63.085938 -18.140625 60.359375 -13.515625 C 57.640625 -8.890625 53.929688 -5.335938 49.234375 -2.859375 C 44.535156 -0.390625 39.289062 0.84375 33.5 0.84375 Z M 33.5 -14.84375 C 36.957031 -14.84375 39.90625 -16.113281 42.34375 -18.65625 C 44.78125 -21.195312 46 -24.835938 46 -29.578125 C 46 -34.304688 44.816406 -37.941406 42.453125 -40.484375 C 40.085938 -43.035156 37.171875 -44.3125 33.703125 -44.3125 C 30.171875 -44.3125 27.238281 -43.054688 24.90625 -40.546875 C 22.570312 -38.035156 21.40625 -34.378906 21.40625 -29.578125 C 21.40625 -24.835938 22.550781 -21.195312 24.84375 -18.65625 C 27.144531 -16.113281 30.03125 -14.84375 33.5 -14.84375 Z M 33.5 -14.84375 "/></g></g><g style="fill:#000000;fill-opacity:1;"><g transform="translate(259.30879, 156.29192)"><path style="stroke:none" d="M 24.703125 -13.984375 L 48.4375 -13.984375 L 48.4375 0 L 6.578125 0 L 6.578125 -74.40625 L 24.703125 -74.40625 Z M 24.703125 -13.984375 "/></g></g><g style="fill:#000000;fill-opacity:1;"><g transform="translate(309.865587, 156.29192)"><path style="stroke:none" d="M 2.96875 -29.6875 C 2.96875 -35.757812 4.113281 -41.09375 6.40625 -45.6875 C 8.707031 -50.28125 11.835938 -53.8125 15.796875 -56.28125 C 19.753906 -58.757812 24.171875 -60 29.046875 -60 C 33.210938 -60 36.867188 -59.148438 40.015625 -57.453125 C 43.160156 -55.753906 45.582031 -53.53125 47.28125 -50.78125 L 47.28125 -59.140625 L 65.40625 -59.140625 L 65.40625 0 L 47.28125 0 L 47.28125 -8.375 C 45.507812 -5.613281 43.050781 -3.382812 39.90625 -1.6875 C 36.757812 0 33.101562 0.84375 28.9375 0.84375 C 24.132812 0.84375 19.753906 -0.40625 15.796875 -2.90625 C 11.835938 -5.414062 8.707031 -8.984375 6.40625 -13.609375 C 4.113281 -18.242188 2.96875 -23.601562 2.96875 -29.6875 Z M 47.28125 -29.578125 C 47.28125 -34.097656 46.023438 -37.664062 43.515625 -40.28125 C 41.003906 -42.894531 37.945312 -44.203125 34.34375 -44.203125 C 30.738281 -44.203125 27.679688 -42.910156 25.171875 -40.328125 C 22.660156 -37.753906 21.40625 -34.207031 21.40625 -29.6875 C 21.40625 -25.15625 22.660156 -21.566406 25.171875 -18.921875 C 27.679688 -16.273438 30.738281 -14.953125 34.34375 -14.953125 C 37.945312 -14.953125 41.003906 -16.257812 43.515625 -18.875 C 46.023438 -21.488281 47.28125 -25.054688 47.28125 -29.578125 Z M 47.28125 -29.578125 "/></g></g><g style="fill:#000000;fill-opacity:1;"><g transform="translate(381.832223, 156.29192)"><path style="stroke:none" d="M 24.703125 -50.78125 C 26.390625 -53.53125 28.820312 -55.753906 32 -57.453125 C 35.1875 -59.148438 38.832031 -60 42.9375 -60 C 47.8125 -60 52.222656 -58.757812 56.171875 -56.28125 C 60.128906 -53.8125 63.253906 -50.28125 65.546875 -45.6875 C 67.847656 -41.09375 69 -35.757812 69 -29.6875 C 69 -23.601562 67.847656 -18.242188 65.546875 -13.609375 C 63.253906 -8.984375 60.128906 -5.414062 56.171875 -2.90625 C 52.222656 -0.40625 47.8125 0.84375 42.9375 0.84375 C 38.757812 0.84375 35.113281 0.015625 32 -1.640625 C 28.894531 -3.304688 26.460938 -5.515625 24.703125 -8.265625 L 24.703125 0 L 6.578125 0 L 6.578125 -78.4375 L 24.703125 -78.4375 Z M 50.5625 -29.6875 C 50.5625 -34.207031 49.304688 -37.753906 46.796875 -40.328125 C 44.285156 -42.910156 41.195312 -44.203125 37.53125 -44.203125 C 33.925781 -44.203125 30.867188 -42.894531 28.359375 -40.28125 C 25.847656 -37.664062 24.59375 -34.097656 24.59375 -29.578125 C 24.59375 -25.054688 25.847656 -21.488281 28.359375 -18.875 C 30.867188 -16.257812 33.925781 -14.953125 37.53125 -14.953125 C 41.132812 -14.953125 44.207031 -16.273438 46.75 -18.921875 C 49.289062 -21.566406 50.5625 -25.15625 50.5625 -29.6875 Z M 50.5625 -29.6875 "/></g></g><g style="fill:#000000;fill-opacity:1;"><g transform="translate(453.798807, 156.29192)"><path style="stroke:none" d="M 30.640625 0.84375 C 25.472656 0.84375 20.875 -0.0351562 16.84375 -1.796875 C 12.820312 -3.566406 9.644531 -5.988281 7.3125 -9.0625 C 4.976562 -12.132812 3.671875 -15.578125 3.390625 -19.390625 L 21.3125 -19.390625 C 21.519531 -17.347656 22.472656 -15.691406 24.171875 -14.421875 C 25.867188 -13.148438 27.953125 -12.515625 30.421875 -12.515625 C 32.679688 -12.515625 34.429688 -12.953125 35.671875 -13.828125 C 36.910156 -14.710938 37.53125 -15.863281 37.53125 -17.28125 C 37.53125 -18.976562 36.644531 -20.234375 34.875 -21.046875 C 33.101562 -21.859375 30.238281 -22.757812 26.28125 -23.75 C 22.039062 -24.738281 18.507812 -25.78125 15.6875 -26.875 C 12.863281 -27.96875 10.425781 -29.695312 8.375 -32.0625 C 6.320312 -34.425781 5.296875 -37.625 5.296875 -41.65625 C 5.296875 -45.050781 6.234375 -48.144531 8.109375 -50.9375 C 9.984375 -53.726562 12.738281 -55.9375 16.375 -57.5625 C 20.019531 -59.1875 24.347656 -60 29.359375 -60 C 36.773438 -60 42.617188 -58.160156 46.890625 -54.484375 C 51.171875 -50.804688 53.628906 -45.929688 54.265625 -39.859375 L 37.53125 -39.859375 C 37.238281 -41.910156 36.332031 -43.535156 34.8125 -44.734375 C 33.300781 -45.929688 31.304688 -46.53125 28.828125 -46.53125 C 26.710938 -46.53125 25.085938 -46.125 23.953125 -45.3125 C 22.828125 -44.5 22.265625 -43.382812 22.265625 -41.96875 C 22.265625 -40.28125 23.164062 -39.007812 24.96875 -38.15625 C 26.769531 -37.3125 29.578125 -36.460938 33.390625 -35.609375 C 37.773438 -34.484375 41.34375 -33.375 44.09375 -32.28125 C 46.851562 -31.1875 49.273438 -29.414062 51.359375 -26.96875 C 53.441406 -24.53125 54.519531 -21.265625 54.59375 -17.171875 C 54.59375 -13.710938 53.617188 -10.617188 51.671875 -7.890625 C 49.734375 -5.171875 46.941406 -3.035156 43.296875 -1.484375 C 39.660156 0.0664062 35.441406 0.84375 30.640625 0.84375 Z M 30.640625 0.84375 "/></g></g><g style="fill:#000000;fill-opacity:1;"><g transform="translate(512.944446, 156.29192)"><path style="stroke:none" d=""/></g></g><g clip-rule="nonzero" clip-path="url(#60794f84f9)"><g clip-rule="nonzero" clip-path="url(#b0ddc3f90c)"><path style=" stroke:none;fill-rule:nonzero;fill:#000000;fill-opacity:1;" d="M 68.730469 81.394531 L 145.074219 81.394531 L 145.074219 157.738281 L 68.730469 157.738281 Z M 68.730469 81.394531 "/></g></g><path style="fill:none;stroke-width:9;stroke-linecap:round;stroke-linejoin:miter;stroke:#fbbf24;stroke-opacity:1;stroke-miterlimit:4;" d="M 4.501935 4.498263 L 36.754135 4.498263 " transform="matrix(0.00000000129728,0.743287,-0.743287,0.00000000129728,122.374753,120.142049)"/><path style="fill:none;stroke-width:9;stroke-linecap:round;stroke-linejoin:miter;stroke:#fbbf24;stroke-opacity:1;stroke-miterlimit:4;" d="M 4.497545 4.500608 L 36.0267 4.500608 " transform="matrix(0.00000000130519,0.74782,-0.74782,0.00000000130519,110.264081,124.097585)"/><path style="fill:none;stroke-width:9;stroke-linecap:round;stroke-linejoin:miter;stroke:#fbbf24;stroke-opacity:1;stroke-miterlimit:4;" d="M 4.500034 4.498596 L 24.768425 4.498596 " transform="matrix(0.00000000129335,0.741032,-0.741032,0.00000000129335,134.485948,119.567673)"/><path style="fill:none;stroke-width:9;stroke-linecap:round;stroke-linejoin:miter;stroke:#fbbf24;stroke-opacity:1;stroke-miterlimit:4;" d="M 4.501725 4.501683 L 36.753925 4.501683 " transform="matrix(0,-0.743287,0.743287,0,91.392236,119.564826)"/><path style="fill:none;stroke-width:9;stroke-linecap:round;stroke-linejoin:miter;stroke:#fbbf24;stroke-opacity:1;stroke-miterlimit:4;" d="M 4.498029 4.5005 L 34.407917 4.497862 " transform="matrix(-0.000848246,-0.747819,0.747819,-0.000848246,103.536693,114.406592)"/><path style="fill:none;stroke-width:9;stroke-linecap:round;stroke-linejoin:miter;stroke:#fbbf24;stroke-opacity:1;stroke-miterlimit:4;" d="M 4.499833 4.497641 L 24.768224 4.497641 " transform="matrix(0,-0.741032,0.741032,0,79.284291,120.139209)"/><g style="fill:#000000;fill-opacity:1;"><g transform="translate(168.119048, 215.796139)"><path style="stroke:none" d="M 5.34375 0 L 2.21875 -8.171875 L 2.171875 -8.171875 C 2.222656 -7.523438 2.25 -6.753906 2.25 -5.859375 L 2.25 0 L 1.265625 0 L 1.265625 -9.21875 L 2.875 -9.21875 L 5.796875 -1.609375 L 5.84375 -1.609375 L 8.796875 -9.21875 L 10.390625 -9.21875 L 10.390625 0 L 9.328125 0 L 9.328125 -5.9375 C 9.328125 -6.613281 9.351562 -7.351562 9.40625 -8.15625 L 9.359375 -8.15625 L 6.203125 0 Z M 5.34375 0 "/></g></g><g style="fill:#000000;fill-opacity:1;"><g transform="translate(179.770199, 215.796139)"><path style="stroke:none" d="M 4.03125 0.125 C 3.007812 0.125 2.203125 -0.179688 1.609375 -0.796875 C 1.015625 -1.421875 0.71875 -2.285156 0.71875 -3.390625 C 0.71875 -4.503906 0.992188 -5.390625 1.546875 -6.046875 C 2.097656 -6.703125 2.832031 -7.03125 3.75 -7.03125 C 4.613281 -7.03125 5.296875 -6.742188 5.796875 -6.171875 C 6.304688 -5.609375 6.5625 -4.859375 6.5625 -3.921875 L 6.5625 -3.265625 L 1.8125 -3.265625 C 1.832031 -2.453125 2.035156 -1.832031 2.421875 -1.40625 C 2.804688 -0.988281 3.351562 -0.78125 4.0625 -0.78125 C 4.8125 -0.78125 5.546875 -0.9375 6.265625 -1.25 L 6.265625 -0.328125 C 5.898438 -0.160156 5.550781 -0.046875 5.21875 0.015625 C 4.882812 0.0859375 4.488281 0.125 4.03125 0.125 Z M 3.75 -6.15625 C 3.1875 -6.15625 2.738281 -5.972656 2.40625 -5.609375 C 2.082031 -5.253906 1.890625 -4.753906 1.828125 -4.109375 L 5.4375 -4.109375 C 5.4375 -4.773438 5.289062 -5.28125 5 -5.625 C 4.707031 -5.976562 4.289062 -6.15625 3.75 -6.15625 Z M 3.75 -6.15625 "/></g></g><g style="fill:#000000;fill-opacity:1;"><g transform="translate(187.010423, 215.796139)"><path style="stroke:none" d="M 5.828125 0 L 5.828125 -4.46875 C 5.828125 -5.03125 5.695312 -5.445312 5.4375 -5.71875 C 5.1875 -6 4.789062 -6.140625 4.25 -6.140625 C 3.519531 -6.140625 2.988281 -5.941406 2.65625 -5.546875 C 2.320312 -5.160156 2.15625 -4.519531 2.15625 -3.625 L 2.15625 0 L 1.109375 0 L 1.109375 -6.90625 L 1.953125 -6.90625 L 2.125 -5.96875 L 2.1875 -5.96875 C 2.394531 -6.300781 2.691406 -6.5625 3.078125 -6.75 C 3.460938 -6.9375 3.894531 -7.03125 4.375 -7.03125 C 5.207031 -7.03125 5.832031 -6.828125 6.25 -6.421875 C 6.664062 -6.023438 6.875 -5.382812 6.875 -4.5 L 6.875 0 Z M 5.828125 0 "/></g></g><g style="fill:#000000;fill-opacity:1;"><g transform="translate(194.931189, 215.796139)"><path style="stroke:none" d="M 6.765625 -6.90625 L 6.765625 -6.25 L 5.484375 -6.09375 C 5.597656 -5.945312 5.703125 -5.753906 5.796875 -5.515625 C 5.890625 -5.273438 5.9375 -5.007812 5.9375 -4.71875 C 5.9375 -4.039062 5.703125 -3.5 5.234375 -3.09375 C 4.773438 -2.6875 4.144531 -2.484375 3.34375 -2.484375 C 3.132812 -2.484375 2.941406 -2.503906 2.765625 -2.546875 C 2.316406 -2.304688 2.09375 -2.007812 2.09375 -1.65625 C 2.09375 -1.46875 2.171875 -1.328125 2.328125 -1.234375 C 2.484375 -1.140625 2.75 -1.09375 3.125 -1.09375 L 4.34375 -1.09375 C 5.09375 -1.09375 5.664062 -0.9375 6.0625 -0.625 C 6.46875 -0.3125 6.671875 0.144531 6.671875 0.75 C 6.671875 1.507812 6.363281 2.085938 5.75 2.484375 C 5.132812 2.890625 4.238281 3.09375 3.0625 3.09375 C 2.164062 3.09375 1.472656 2.925781 0.984375 2.59375 C 0.492188 2.257812 0.25 1.785156 0.25 1.171875 C 0.25 0.753906 0.378906 0.390625 0.640625 0.078125 C 0.910156 -0.222656 1.289062 -0.429688 1.78125 -0.546875 C 1.601562 -0.617188 1.453125 -0.738281 1.328125 -0.90625 C 1.210938 -1.082031 1.15625 -1.28125 1.15625 -1.5 C 1.15625 -1.75 1.222656 -1.96875 1.359375 -2.15625 C 1.492188 -2.34375 1.707031 -2.523438 2 -2.703125 C 1.644531 -2.859375 1.351562 -3.109375 1.125 -3.453125 C 0.894531 -3.804688 0.78125 -4.210938 0.78125 -4.671875 C 0.78125 -5.421875 1.007812 -6 1.46875 -6.40625 C 1.925781 -6.820312 2.566406 -7.03125 3.390625 -7.03125 C 3.753906 -7.03125 4.082031 -6.988281 4.375 -6.90625 Z M 1.25 1.15625 C 1.25 1.53125 1.40625 1.8125 1.71875 2 C 2.039062 2.195312 2.492188 2.296875 3.078125 2.296875 C 3.960938 2.296875 4.613281 2.164062 5.03125 1.90625 C 5.457031 1.644531 5.671875 1.289062 5.671875 0.84375 C 5.671875 0.46875 5.550781 0.207031 5.3125 0.0625 C 5.082031 -0.0820312 4.648438 -0.15625 4.015625 -0.15625 L 2.765625 -0.15625 C 2.285156 -0.15625 1.910156 -0.046875 1.640625 0.171875 C 1.378906 0.398438 1.25 0.726562 1.25 1.15625 Z M 1.828125 -4.6875 C 1.828125 -4.207031 1.960938 -3.84375 2.234375 -3.59375 C 2.503906 -3.351562 2.882812 -3.234375 3.375 -3.234375 C 4.394531 -3.234375 4.90625 -3.726562 4.90625 -4.71875 C 4.90625 -5.75 4.390625 -6.265625 3.359375 -6.265625 C 2.859375 -6.265625 2.476562 -6.128906 2.21875 -5.859375 C 1.957031 -5.597656 1.828125 -5.207031 1.828125 -4.6875 Z M 1.828125 -4.6875 "/></g></g><g style="fill:#000000;fill-opacity:1;"><g transform="translate(202.001274, 215.796139)"><path style="stroke:none" d="M 5.828125 0 L 5.828125 -4.46875 C 5.828125 -5.03125 5.695312 -5.445312 5.4375 -5.71875 C 5.1875 -6 4.789062 -6.140625 4.25 -6.140625 C 3.519531 -6.140625 2.988281 -5.941406 2.65625 -5.546875 C 2.320312 -5.148438 2.15625 -4.503906 2.15625 -3.609375 L 2.15625 0 L 1.109375 0 L 1.109375 -9.8125 L 2.15625 -9.8125 L 2.15625 -6.84375 C 2.15625 -6.476562 2.140625 -6.179688 2.109375 -5.953125 L 2.171875 -5.953125 C 2.378906 -6.285156 2.671875 -6.546875 3.046875 -6.734375 C 3.429688 -6.921875 3.863281 -7.015625 4.34375 -7.015625 C 5.1875 -7.015625 5.816406 -6.8125 6.234375 -6.40625 C 6.660156 -6.007812 6.875 -5.375 6.875 -4.5 L 6.875 0 Z M 5.828125 0 "/></g></g><g style="fill:#000000;fill-opacity:1;"><g transform="translate(209.922041, 215.796139)"><path style="stroke:none" d="M 2.09375 -6.90625 L 2.09375 -2.421875 C 2.09375 -1.859375 2.21875 -1.4375 2.46875 -1.15625 C 2.726562 -0.882812 3.132812 -0.75 3.6875 -0.75 C 4.40625 -0.75 4.929688 -0.945312 5.265625 -1.34375 C 5.597656 -1.738281 5.765625 -2.382812 5.765625 -3.28125 L 5.765625 -6.90625 L 6.8125 -6.90625 L 6.8125 0 L 5.953125 0 L 5.796875 -0.921875 L 5.734375 -0.921875 C 5.523438 -0.585938 5.226562 -0.328125 4.84375 -0.140625 C 4.46875 0.0351562 4.035156 0.125 3.546875 0.125 C 2.703125 0.125 2.070312 -0.0703125 1.65625 -0.46875 C 1.238281 -0.875 1.03125 -1.515625 1.03125 -2.390625 L 1.03125 -6.90625 Z M 2.09375 -6.90625 "/></g></g><g style="fill:#000000;fill-opacity:1;"><g transform="translate(217.842808, 215.796139)"><path style="stroke:none" d="M 4.328125 -7.015625 C 5.234375 -7.015625 5.9375 -6.703125 6.4375 -6.078125 C 6.9375 -5.460938 7.1875 -4.585938 7.1875 -3.453125 C 7.1875 -2.328125 6.929688 -1.445312 6.421875 -0.8125 C 5.921875 -0.1875 5.222656 0.125 4.328125 0.125 C 3.878906 0.125 3.46875 0.0390625 3.09375 -0.125 C 2.71875 -0.289062 2.40625 -0.546875 2.15625 -0.890625 L 2.078125 -0.890625 L 1.859375 0 L 1.109375 0 L 1.109375 -9.8125 L 2.15625 -9.8125 L 2.15625 -7.421875 C 2.15625 -6.890625 2.140625 -6.410156 2.109375 -5.984375 L 2.15625 -5.984375 C 2.644531 -6.671875 3.367188 -7.015625 4.328125 -7.015625 Z M 4.171875 -6.140625 C 3.453125 -6.140625 2.9375 -5.9375 2.625 -5.53125 C 2.3125 -5.125 2.15625 -4.429688 2.15625 -3.453125 C 2.15625 -2.484375 2.316406 -1.789062 2.640625 -1.375 C 2.960938 -0.957031 3.484375 -0.75 4.203125 -0.75 C 4.835938 -0.75 5.3125 -0.984375 5.625 -1.453125 C 5.945312 -1.921875 6.109375 -2.59375 6.109375 -3.46875 C 6.109375 -4.375 5.945312 -5.046875 5.625 -5.484375 C 5.3125 -5.921875 4.828125 -6.140625 4.171875 -6.140625 Z M 4.171875 -6.140625 "/></g></g><g style="fill:#000000;fill-opacity:1;"><g transform="translate(225.750972, 215.796139)"><path style="stroke:none" d="M 2.09375 -6.90625 L 2.09375 -2.421875 C 2.09375 -1.859375 2.21875 -1.4375 2.46875 -1.15625 C 2.726562 -0.882812 3.132812 -0.75 3.6875 -0.75 C 4.40625 -0.75 4.929688 -0.945312 5.265625 -1.34375 C 5.597656 -1.738281 5.765625 -2.382812 5.765625 -3.28125 L 5.765625 -6.90625 L 6.8125 -6.90625 L 6.8125 0 L 5.953125 0 L 5.796875 -0.921875 L 5.734375 -0.921875 C 5.523438 -0.585938 5.226562 -0.328125 4.84375 -0.140625 C 4.46875 0.0351562 4.035156 0.125 3.546875 0.125 C 2.703125 0.125 2.070312 -0.0703125 1.65625 -0.46875 C 1.238281 -0.875 1.03125 -1.515625 1.03125 -2.390625 L 1.03125 -6.90625 Z M 2.09375 -6.90625 "/></g></g><g style="fill:#000000;fill-opacity:1;"><g transform="translate(233.671739, 215.796139)"><path style="stroke:none" d="M 5.828125 0 L 5.828125 -4.46875 C 5.828125 -5.03125 5.695312 -5.445312 5.4375 -5.71875 C 5.1875 -6 4.789062 -6.140625 4.25 -6.140625 C 3.519531 -6.140625 2.988281 -5.941406 2.65625 -5.546875 C 2.320312 -5.160156 2.15625 -4.519531 2.15625 -3.625 L 2.15625 0 L 1.109375 0 L 1.109375 -6.90625 L 1.953125 -6.90625 L 2.125 -5.96875 L 2.1875 -5.96875 C 2.394531 -6.300781 2.691406 -6.5625 3.078125 -6.75 C 3.460938 -6.9375 3.894531 -7.03125 4.375 -7.03125 C 5.207031 -7.03125 5.832031 -6.828125 6.25 -6.421875 C 6.664062 -6.023438 6.875 -5.382812 6.875 -4.5 L 6.875 0 Z M 5.828125 0 "/></g></g><g style="fill:#000000;fill-opacity:1;"><g transform="translate(241.592506, 215.796139)"><path style="stroke:none" d="M 6.765625 -6.90625 L 6.765625 -6.25 L 5.484375 -6.09375 C 5.597656 -5.945312 5.703125 -5.753906 5.796875 -5.515625 C 5.890625 -5.273438 5.9375 -5.007812 5.9375 -4.71875 C 5.9375 -4.039062 5.703125 -3.5 5.234375 -3.09375 C 4.773438 -2.6875 4.144531 -2.484375 3.34375 -2.484375 C 3.132812 -2.484375 2.941406 -2.503906 2.765625 -2.546875 C 2.316406 -2.304688 2.09375 -2.007812 2.09375 -1.65625 C 2.09375 -1.46875 2.171875 -1.328125 2.328125 -1.234375 C 2.484375 -1.140625 2.75 -1.09375 3.125 -1.09375 L 4.34375 -1.09375 C 5.09375 -1.09375 5.664062 -0.9375 6.0625 -0.625 C 6.46875 -0.3125 6.671875 0.144531 6.671875 0.75 C 6.671875 1.507812 6.363281 2.085938 5.75 2.484375 C 5.132812 2.890625 4.238281 3.09375 3.0625 3.09375 C 2.164062 3.09375 1.472656 2.925781 0.984375 2.59375 C 0.492188 2.257812 0.25 1.785156 0.25 1.171875 C 0.25 0.753906 0.378906 0.390625 0.640625 0.078125 C 0.910156 -0.222656 1.289062 -0.429688 1.78125 -0.546875 C 1.601562 -0.617188 1.453125 -0.738281 1.328125 -0.90625 C 1.210938 -1.082031 1.15625 -1.28125 1.15625 -1.5 C 1.15625 -1.75 1.222656 -1.96875 1.359375 -2.15625 C 1.492188 -2.34375 1.707031 -2.523438 2 -2.703125 C 1.644531 -2.859375 1.351562 -3.109375 1.125 -3.453125 C 0.894531 -3.804688 0.78125 -4.210938 0.78125 -4.671875 C 0.78125 -5.421875 1.007812 -6 1.46875 -6.40625 C 1.925781 -6.820312 2.566406 -7.03125 3.390625 -7.03125 C 3.753906 -7.03125 4.082031 -6.988281 4.375 -6.90625 Z M 1.25 1.15625 C 1.25 1.53125 1.40625 1.8125 1.71875 2 C 2.039062 2.195312 2.492188 2.296875 3.078125 2.296875 C 3.960938 2.296875 4.613281 2.164062 5.03125 1.90625 C 5.457031 1.644531 5.671875 1.289062 5.671875 0.84375 C 5.671875 0.46875 5.550781 0.207031 5.3125 0.0625 C 5.082031 -0.0820312 4.648438 -0.15625 4.015625 -0.15625 L 2.765625 -0.15625 C 2.285156 -0.15625 1.910156 -0.046875 1.640625 0.171875 C 1.378906 0.398438 1.25 0.726562 1.25 1.15625 Z M 1.828125 -4.6875 C 1.828125 -4.207031 1.960938 -3.84375 2.234375 -3.59375 C 2.503906 -3.351562 2.882812 -3.234375 3.375 -3.234375 C 4.394531 -3.234375 4.90625 -3.726562 4.90625 -4.71875 C 4.90625 -5.75 4.390625 -6.265625 3.359375 -6.265625 C 2.859375 -6.265625 2.476562 -6.128906 2.21875 -5.859375 C 1.957031 -5.597656 1.828125 -5.207031 1.828125 -4.6875 Z M 1.828125 -4.6875 "/></g></g><g style="fill:#000000;fill-opacity:1;"><g transform="translate(248.662591, 215.796139)"><path style="stroke:none" d="M 2.140625 -3.53125 C 2.316406 -3.789062 2.59375 -4.128906 2.96875 -4.546875 L 5.203125 -6.90625 L 6.4375 -6.90625 L 3.640625 -3.96875 L 6.640625 0 L 5.375 0 L 2.9375 -3.265625 L 2.140625 -2.578125 L 2.140625 0 L 1.109375 0 L 1.109375 -9.8125 L 2.140625 -9.8125 L 2.140625 -4.609375 C 2.140625 -4.378906 2.125 -4.019531 2.09375 -3.53125 Z M 2.140625 -3.53125 "/></g></g><g style="fill:#000000;fill-opacity:1;"><g transform="translate(255.436517, 215.796139)"><path style="stroke:none" d="M 5.359375 0 L 5.15625 -0.984375 L 5.09375 -0.984375 C 4.75 -0.546875 4.40625 -0.25 4.0625 -0.09375 C 3.71875 0.0507812 3.289062 0.125 2.78125 0.125 C 2.101562 0.125 1.566406 -0.0507812 1.171875 -0.40625 C 0.785156 -0.757812 0.59375 -1.257812 0.59375 -1.90625 C 0.59375 -3.300781 1.707031 -4.035156 3.9375 -4.109375 L 5.109375 -4.140625 L 5.109375 -4.5625 C 5.109375 -5.101562 4.988281 -5.503906 4.75 -5.765625 C 4.519531 -6.023438 4.148438 -6.15625 3.640625 -6.15625 C 3.066406 -6.15625 2.414062 -5.976562 1.6875 -5.625 L 1.375 -6.421875 C 1.707031 -6.609375 2.078125 -6.753906 2.484375 -6.859375 C 2.890625 -6.960938 3.296875 -7.015625 3.703125 -7.015625 C 4.523438 -7.015625 5.132812 -6.832031 5.53125 -6.46875 C 5.925781 -6.101562 6.125 -5.519531 6.125 -4.71875 L 6.125 0 Z M 3 -0.734375 C 3.644531 -0.734375 4.148438 -0.910156 4.515625 -1.265625 C 4.890625 -1.628906 5.078125 -2.128906 5.078125 -2.765625 L 5.078125 -3.390625 L 4.046875 -3.359375 C 3.210938 -3.328125 2.609375 -3.195312 2.234375 -2.96875 C 1.867188 -2.738281 1.6875 -2.378906 1.6875 -1.890625 C 1.6875 -1.515625 1.800781 -1.226562 2.03125 -1.03125 C 2.257812 -0.832031 2.582031 -0.734375 3 -0.734375 Z M 3 -0.734375 "/></g></g><g style="fill:#000000;fill-opacity:1;"><g transform="translate(262.613728, 215.796139)"><path style="stroke:none" d="M 5.828125 0 L 5.828125 -4.46875 C 5.828125 -5.03125 5.695312 -5.445312 5.4375 -5.71875 C 5.1875 -6 4.789062 -6.140625 4.25 -6.140625 C 3.519531 -6.140625 2.988281 -5.941406 2.65625 -5.546875 C 2.320312 -5.160156 2.15625 -4.519531 2.15625 -3.625 L 2.15625 0 L 1.109375 0 L 1.109375 -6.90625 L 1.953125 -6.90625 L 2.125 -5.96875 L 2.1875 -5.96875 C 2.394531 -6.300781 2.691406 -6.5625 3.078125 -6.75 C 3.460938 -6.9375 3.894531 -7.03125 4.375 -7.03125 C 5.207031 -7.03125 5.832031 -6.828125 6.25 -6.421875 C 6.664062 -6.023438 6.875 -5.382812 6.875 -4.5 L 6.875 0 Z M 5.828125 0 "/></g></g><g style="fill:#000000;fill-opacity:1;"><g transform="translate(270.534494, 215.796139)"><path style="stroke:none" d=""/></g></g><g style="fill:#000000;fill-opacity:1;"><g transform="translate(273.886799, 215.796139)"><path style="stroke:none" d="M 1.265625 0 L 1.265625 -9.21875 L 2.34375 -9.21875 L 2.34375 0 Z M 1.265625 0 "/></g></g><g style="fill:#000000;fill-opacity:1;"><g transform="translate(277.484857, 215.796139)"><path style="stroke:none" d="M 9.90625 0 L 9.90625 -4.5 C 9.90625 -5.039062 9.785156 -5.445312 9.546875 -5.71875 C 9.316406 -6 8.957031 -6.140625 8.46875 -6.140625 C 7.8125 -6.140625 7.328125 -5.953125 7.015625 -5.578125 C 6.703125 -5.203125 6.546875 -4.628906 6.546875 -3.859375 L 6.546875 0 L 5.515625 0 L 5.515625 -4.5 C 5.515625 -5.039062 5.394531 -5.445312 5.15625 -5.71875 C 4.914062 -6 4.546875 -6.140625 4.046875 -6.140625 C 3.390625 -6.140625 2.910156 -5.941406 2.609375 -5.546875 C 2.304688 -5.160156 2.15625 -4.519531 2.15625 -3.625 L 2.15625 0 L 1.109375 0 L 1.109375 -6.90625 L 1.953125 -6.90625 L 2.125 -5.96875 L 2.1875 -5.96875 C 2.382812 -6.300781 2.660156 -6.5625 3.015625 -6.75 C 3.367188 -6.9375 3.769531 -7.03125 4.21875 -7.03125 C 5.300781 -7.03125 6.007812 -6.640625 6.34375 -5.859375 L 6.390625 -5.859375 C 6.597656 -6.222656 6.894531 -6.507812 7.28125 -6.71875 C 7.675781 -6.925781 8.125 -7.03125 8.625 -7.03125 C 9.40625 -7.03125 9.988281 -6.828125 10.375 -6.421875 C 10.757812 -6.023438 10.953125 -5.382812 10.953125 -4.5 L 10.953125 0 Z M 9.90625 0 "/></g></g><g style="fill:#000000;fill-opacity:1;"><g transform="translate(289.488882, 215.796139)"><path style="stroke:none" d="M 4.328125 0.125 C 3.878906 0.125 3.46875 0.0390625 3.09375 -0.125 C 2.71875 -0.289062 2.40625 -0.546875 2.15625 -0.890625 L 2.078125 -0.890625 C 2.128906 -0.484375 2.15625 -0.0976562 2.15625 0.265625 L 2.15625 3.09375 L 1.109375 3.09375 L 1.109375 -6.90625 L 1.953125 -6.90625 L 2.109375 -5.96875 L 2.15625 -5.96875 C 2.425781 -6.34375 2.738281 -6.613281 3.09375 -6.78125 C 3.445312 -6.945312 3.859375 -7.03125 4.328125 -7.03125 C 5.242188 -7.03125 5.945312 -6.71875 6.4375 -6.09375 C 6.9375 -5.46875 7.1875 -4.585938 7.1875 -3.453125 C 7.1875 -2.328125 6.929688 -1.445312 6.421875 -0.8125 C 5.921875 -0.1875 5.222656 0.125 4.328125 0.125 Z M 4.171875 -6.140625 C 3.460938 -6.140625 2.953125 -5.941406 2.640625 -5.546875 C 2.328125 -5.160156 2.164062 -4.539062 2.15625 -3.6875 L 2.15625 -3.453125 C 2.15625 -2.484375 2.316406 -1.789062 2.640625 -1.375 C 2.960938 -0.957031 3.484375 -0.75 4.203125 -0.75 C 4.796875 -0.75 5.257812 -0.988281 5.59375 -1.46875 C 5.9375 -1.957031 6.109375 -2.625 6.109375 -3.46875 C 6.109375 -4.332031 5.9375 -4.992188 5.59375 -5.453125 C 5.257812 -5.910156 4.785156 -6.140625 4.171875 -6.140625 Z M 4.171875 -6.140625 "/></g></g><g style="fill:#000000;fill-opacity:1;"><g transform="translate(297.397039, 215.796139)"><path style="stroke:none" d="M 2.15625 0 L 1.109375 0 L 1.109375 -6.90625 L 2.15625 -6.90625 Z M 1.015625 -8.78125 C 1.015625 -9.019531 1.070312 -9.191406 1.1875 -9.296875 C 1.3125 -9.410156 1.460938 -9.46875 1.640625 -9.46875 C 1.804688 -9.46875 1.945312 -9.410156 2.0625 -9.296875 C 2.1875 -9.179688 2.25 -9.007812 2.25 -8.78125 C 2.25 -8.539062 2.1875 -8.363281 2.0625 -8.25 C 1.945312 -8.132812 1.804688 -8.078125 1.640625 -8.078125 C 1.460938 -8.078125 1.3125 -8.132812 1.1875 -8.25 C 1.070312 -8.363281 1.015625 -8.539062 1.015625 -8.78125 Z M 1.015625 -8.78125 "/></g></g><g style="fill:#000000;fill-opacity:1;"><g transform="translate(300.661131, 215.796139)"><path style="stroke:none" d="M 5.359375 0 L 5.15625 -0.984375 L 5.09375 -0.984375 C 4.75 -0.546875 4.40625 -0.25 4.0625 -0.09375 C 3.71875 0.0507812 3.289062 0.125 2.78125 0.125 C 2.101562 0.125 1.566406 -0.0507812 1.171875 -0.40625 C 0.785156 -0.757812 0.59375 -1.257812 0.59375 -1.90625 C 0.59375 -3.300781 1.707031 -4.035156 3.9375 -4.109375 L 5.109375 -4.140625 L 5.109375 -4.5625 C 5.109375 -5.101562 4.988281 -5.503906 4.75 -5.765625 C 4.519531 -6.023438 4.148438 -6.15625 3.640625 -6.15625 C 3.066406 -6.15625 2.414062 -5.976562 1.6875 -5.625 L 1.375 -6.421875 C 1.707031 -6.609375 2.078125 -6.753906 2.484375 -6.859375 C 2.890625 -6.960938 3.296875 -7.015625 3.703125 -7.015625 C 4.523438 -7.015625 5.132812 -6.832031 5.53125 -6.46875 C 5.925781 -6.101562 6.125 -5.519531 6.125 -4.71875 L 6.125 0 Z M 3 -0.734375 C 3.644531 -0.734375 4.148438 -0.910156 4.515625 -1.265625 C 4.890625 -1.628906 5.078125 -2.128906 5.078125 -2.765625 L 5.078125 -3.390625 L 4.046875 -3.359375 C 3.210938 -3.328125 2.609375 -3.195312 2.234375 -2.96875 C 1.867188 -2.738281 1.6875 -2.378906 1.6875 -1.890625 C 1.6875 -1.515625 1.800781 -1.226562 2.03125 -1.03125 C 2.257812 -0.832031 2.582031 -0.734375 3 -0.734375 Z M 3 -0.734375 "/></g></g><g style="fill:#000000;fill-opacity:1;"><g transform="translate(307.838336, 215.796139)"><path style="stroke:none" d="M 5.828125 0 L 5.828125 -4.46875 C 5.828125 -5.03125 5.695312 -5.445312 5.4375 -5.71875 C 5.1875 -6 4.789062 -6.140625 4.25 -6.140625 C 3.519531 -6.140625 2.988281 -5.941406 2.65625 -5.546875 C 2.320312 -5.160156 2.15625 -4.519531 2.15625 -3.625 L 2.15625 0 L 1.109375 0 L 1.109375 -6.90625 L 1.953125 -6.90625 L 2.125 -5.96875 L 2.1875 -5.96875 C 2.394531 -6.300781 2.691406 -6.5625 3.078125 -6.75 C 3.460938 -6.9375 3.894531 -7.03125 4.375 -7.03125 C 5.207031 -7.03125 5.832031 -6.828125 6.25 -6.421875 C 6.664062 -6.023438 6.875 -5.382812 6.875 -4.5 L 6.875 0 Z M 5.828125 0 "/></g></g><g style="fill:#000000;fill-opacity:1;"><g transform="translate(315.759102, 215.796139)"><path style="stroke:none" d=""/></g></g><g style="fill:#000000;fill-opacity:1;"><g transform="translate(319.111419, 215.796139)"><path style="stroke:none" d="M 8.625 -4.6875 C 8.625 -3.164062 8.207031 -2.003906 7.375 -1.203125 C 6.550781 -0.398438 5.363281 0 3.8125 0 L 1.265625 0 L 1.265625 -9.21875 L 4.09375 -9.21875 C 5.519531 -9.21875 6.628906 -8.816406 7.421875 -8.015625 C 8.222656 -7.222656 8.625 -6.113281 8.625 -4.6875 Z M 7.484375 -4.65625 C 7.484375 -5.851562 7.179688 -6.753906 6.578125 -7.359375 C 5.972656 -7.972656 5.078125 -8.28125 3.890625 -8.28125 L 2.34375 -8.28125 L 2.34375 -0.921875 L 3.640625 -0.921875 C 4.921875 -0.921875 5.878906 -1.234375 6.515625 -1.859375 C 7.160156 -2.492188 7.484375 -3.425781 7.484375 -4.65625 Z M 7.484375 -4.65625 "/></g></g><g style="fill:#000000;fill-opacity:1;"><g transform="translate(328.519286, 215.796139)"><path style="stroke:none" d="M 4.03125 0.125 C 3.007812 0.125 2.203125 -0.179688 1.609375 -0.796875 C 1.015625 -1.421875 0.71875 -2.285156 0.71875 -3.390625 C 0.71875 -4.503906 0.992188 -5.390625 1.546875 -6.046875 C 2.097656 -6.703125 2.832031 -7.03125 3.75 -7.03125 C 4.613281 -7.03125 5.296875 -6.742188 5.796875 -6.171875 C 6.304688 -5.609375 6.5625 -4.859375 6.5625 -3.921875 L 6.5625 -3.265625 L 1.8125 -3.265625 C 1.832031 -2.453125 2.035156 -1.832031 2.421875 -1.40625 C 2.804688 -0.988281 3.351562 -0.78125 4.0625 -0.78125 C 4.8125 -0.78125 5.546875 -0.9375 6.265625 -1.25 L 6.265625 -0.328125 C 5.898438 -0.160156 5.550781 -0.046875 5.21875 0.015625 C 4.882812 0.0859375 4.488281 0.125 4.03125 0.125 Z M 3.75 -6.15625 C 3.1875 -6.15625 2.738281 -5.972656 2.40625 -5.609375 C 2.082031 -5.253906 1.890625 -4.753906 1.828125 -4.109375 L 5.4375 -4.109375 C 5.4375 -4.773438 5.289062 -5.28125 5 -5.625 C 4.707031 -5.976562 4.289062 -6.15625 3.75 -6.15625 Z M 3.75 -6.15625 "/></g></g><g style="fill:#000000;fill-opacity:1;"><g transform="translate(335.759522, 215.796139)"><path style="stroke:none" d="M 5.828125 0 L 5.828125 -4.46875 C 5.828125 -5.03125 5.695312 -5.445312 5.4375 -5.71875 C 5.1875 -6 4.789062 -6.140625 4.25 -6.140625 C 3.519531 -6.140625 2.988281 -5.941406 2.65625 -5.546875 C 2.320312 -5.160156 2.15625 -4.519531 2.15625 -3.625 L 2.15625 0 L 1.109375 0 L 1.109375 -6.90625 L 1.953125 -6.90625 L 2.125 -5.96875 L 2.1875 -5.96875 C 2.394531 -6.300781 2.691406 -6.5625 3.078125 -6.75 C 3.460938 -6.9375 3.894531 -7.03125 4.375 -7.03125 C 5.207031 -7.03125 5.832031 -6.828125 6.25 -6.421875 C 6.664062 -6.023438 6.875 -5.382812 6.875 -4.5 L 6.875 0 Z M 5.828125 0 "/></g></g><g style="fill:#000000;fill-opacity:1;"><g transform="translate(343.680289, 215.796139)"><path style="stroke:none" d="M 6.765625 -6.90625 L 6.765625 -6.25 L 5.484375 -6.09375 C 5.597656 -5.945312 5.703125 -5.753906 5.796875 -5.515625 C 5.890625 -5.273438 5.9375 -5.007812 5.9375 -4.71875 C 5.9375 -4.039062 5.703125 -3.5 5.234375 -3.09375 C 4.773438 -2.6875 4.144531 -2.484375 3.34375 -2.484375 C 3.132812 -2.484375 2.941406 -2.503906 2.765625 -2.546875 C 2.316406 -2.304688 2.09375 -2.007812 2.09375 -1.65625 C 2.09375 -1.46875 2.171875 -1.328125 2.328125 -1.234375 C 2.484375 -1.140625 2.75 -1.09375 3.125 -1.09375 L 4.34375 -1.09375 C 5.09375 -1.09375 5.664062 -0.9375 6.0625 -0.625 C 6.46875 -0.3125 6.671875 0.144531 6.671875 0.75 C 6.671875 1.507812 6.363281 2.085938 5.75 2.484375 C 5.132812 2.890625 4.238281 3.09375 3.0625 3.09375 C 2.164062 3.09375 1.472656 2.925781 0.984375 2.59375 C 0.492188 2.257812 0.25 1.785156 0.25 1.171875 C 0.25 0.753906 0.378906 0.390625 0.640625 0.078125 C 0.910156 -0.222656 1.289062 -0.429688 1.78125 -0.546875 C 1.601562 -0.617188 1.453125 -0.738281 1.328125 -0.90625 C 1.210938 -1.082031 1.15625 -1.28125 1.15625 -1.5 C 1.15625 -1.75 1.222656 -1.96875 1.359375 -2.15625 C 1.492188 -2.34375 1.707031 -2.523438 2 -2.703125 C 1.644531 -2.859375 1.351562 -3.109375 1.125 -3.453125 C 0.894531 -3.804688 0.78125 -4.210938 0.78125 -4.671875 C 0.78125 -5.421875 1.007812 -6 1.46875 -6.40625 C 1.925781 -6.820312 2.566406 -7.03125 3.390625 -7.03125 C 3.753906 -7.03125 4.082031 -6.988281 4.375 -6.90625 Z M 1.25 1.15625 C 1.25 1.53125 1.40625 1.8125 1.71875 2 C 2.039062 2.195312 2.492188 2.296875 3.078125 2.296875 C 3.960938 2.296875 4.613281 2.164062 5.03125 1.90625 C 5.457031 1.644531 5.671875 1.289062 5.671875 0.84375 C 5.671875 0.46875 5.550781 0.207031 5.3125 0.0625 C 5.082031 -0.0820312 4.648438 -0.15625 4.015625 -0.15625 L 2.765625 -0.15625 C 2.285156 -0.15625 1.910156 -0.046875 1.640625 0.171875 C 1.378906 0.398438 1.25 0.726562 1.25 1.15625 Z M 1.828125 -4.6875 C 1.828125 -4.207031 1.960938 -3.84375 2.234375 -3.59375 C 2.503906 -3.351562 2.882812 -3.234375 3.375 -3.234375 C 4.394531 -3.234375 4.90625 -3.726562 4.90625 -4.71875 C 4.90625 -5.75 4.390625 -6.265625 3.359375 -6.265625 C 2.859375 -6.265625 2.476562 -6.128906 2.21875 -5.859375 C 1.957031 -5.597656 1.828125 -5.207031 1.828125 -4.6875 Z M 1.828125 -4.6875 "/></g></g><g style="fill:#000000;fill-opacity:1;"><g transform="translate(350.750368, 215.796139)"><path style="stroke:none" d="M 5.359375 0 L 5.15625 -0.984375 L 5.09375 -0.984375 C 4.75 -0.546875 4.40625 -0.25 4.0625 -0.09375 C 3.71875 0.0507812 3.289062 0.125 2.78125 0.125 C 2.101562 0.125 1.566406 -0.0507812 1.171875 -0.40625 C 0.785156 -0.757812 0.59375 -1.257812 0.59375 -1.90625 C 0.59375 -3.300781 1.707031 -4.035156 3.9375 -4.109375 L 5.109375 -4.140625 L 5.109375 -4.5625 C 5.109375 -5.101562 4.988281 -5.503906 4.75 -5.765625 C 4.519531 -6.023438 4.148438 -6.15625 3.640625 -6.15625 C 3.066406 -6.15625 2.414062 -5.976562 1.6875 -5.625 L 1.375 -6.421875 C 1.707031 -6.609375 2.078125 -6.753906 2.484375 -6.859375 C 2.890625 -6.960938 3.296875 -7.015625 3.703125 -7.015625 C 4.523438 -7.015625 5.132812 -6.832031 5.53125 -6.46875 C 5.925781 -6.101562 6.125 -5.519531 6.125 -4.71875 L 6.125 0 Z M 3 -0.734375 C 3.644531 -0.734375 4.148438 -0.910156 4.515625 -1.265625 C 4.890625 -1.628906 5.078125 -2.128906 5.078125 -2.765625 L 5.078125 -3.390625 L 4.046875 -3.359375 C 3.210938 -3.328125 2.609375 -3.195312 2.234375 -2.96875 C 1.867188 -2.738281 1.6875 -2.378906 1.6875 -1.890625 C 1.6875 -1.515625 1.800781 -1.226562 2.03125 -1.03125 C 2.257812 -0.832031 2.582031 -0.734375 3 -0.734375 Z M 3 -0.734375 "/></g></g><g style="fill:#000000;fill-opacity:1;"><g transform="translate(357.927572, 215.796139)"><path style="stroke:none" d="M 5.828125 0 L 5.828125 -4.46875 C 5.828125 -5.03125 5.695312 -5.445312 5.4375 -5.71875 C 5.1875 -6 4.789062 -6.140625 4.25 -6.140625 C 3.519531 -6.140625 2.988281 -5.941406 2.65625 -5.546875 C 2.320312 -5.160156 2.15625 -4.519531 2.15625 -3.625 L 2.15625 0 L 1.109375 0 L 1.109375 -6.90625 L 1.953125 -6.90625 L 2.125 -5.96875 L 2.1875 -5.96875 C 2.394531 -6.300781 2.691406 -6.5625 3.078125 -6.75 C 3.460938 -6.9375 3.894531 -7.03125 4.375 -7.03125 C 5.207031 -7.03125 5.832031 -6.828125 6.25 -6.421875 C 6.664062 -6.023438 6.875 -5.382812 6.875 -4.5 L 6.875 0 Z M 5.828125 0 "/></g></g><g style="fill:#000000;fill-opacity:1;"><g transform="translate(365.848339, 215.796139)"><path style="stroke:none" d=""/></g></g><g style="fill:#000000;fill-opacity:1;"><g transform="translate(369.200656, 215.796139)"><path style="stroke:none" d="M 7.921875 0 L 6.65625 0 L 3.296875 -4.46875 L 2.34375 -3.609375 L 2.34375 0 L 1.265625 0 L 1.265625 -9.21875 L 2.34375 -9.21875 L 2.34375 -4.640625 L 6.515625 -9.21875 L 7.78125 -9.21875 L 4.078125 -5.21875 Z M 7.921875 0 "/></g></g><g style="fill:#000000;fill-opacity:1;"><g transform="translate(377.121422, 215.796139)"><path style="stroke:none" d="M 4.03125 0.125 C 3.007812 0.125 2.203125 -0.179688 1.609375 -0.796875 C 1.015625 -1.421875 0.71875 -2.285156 0.71875 -3.390625 C 0.71875 -4.503906 0.992188 -5.390625 1.546875 -6.046875 C 2.097656 -6.703125 2.832031 -7.03125 3.75 -7.03125 C 4.613281 -7.03125 5.296875 -6.742188 5.796875 -6.171875 C 6.304688 -5.609375 6.5625 -4.859375 6.5625 -3.921875 L 6.5625 -3.265625 L 1.8125 -3.265625 C 1.832031 -2.453125 2.035156 -1.832031 2.421875 -1.40625 C 2.804688 -0.988281 3.351562 -0.78125 4.0625 -0.78125 C 4.8125 -0.78125 5.546875 -0.9375 6.265625 -1.25 L 6.265625 -0.328125 C 5.898438 -0.160156 5.550781 -0.046875 5.21875 0.015625 C 4.882812 0.0859375 4.488281 0.125 4.03125 0.125 Z M 3.75 -6.15625 C 3.1875 -6.15625 2.738281 -5.972656 2.40625 -5.609375 C 2.082031 -5.253906 1.890625 -4.753906 1.828125 -4.109375 L 5.4375 -4.109375 C 5.4375 -4.773438 5.289062 -5.28125 5 -5.625 C 4.707031 -5.976562 4.289062 -6.15625 3.75 -6.15625 Z M 3.75 -6.15625 "/></g></g><g style="fill:#000000;fill-opacity:1;"><g transform="translate(384.361633, 215.796139)"><path style="stroke:none" d="M 5.828125 0 L 5.828125 -4.46875 C 5.828125 -5.03125 5.695312 -5.445312 5.4375 -5.71875 C 5.1875 -6 4.789062 -6.140625 4.25 -6.140625 C 3.519531 -6.140625 2.988281 -5.941406 2.65625 -5.546875 C 2.320312 -5.160156 2.15625 -4.519531 2.15625 -3.625 L 2.15625 0 L 1.109375 0 L 1.109375 -6.90625 L 1.953125 -6.90625 L 2.125 -5.96875 L 2.1875 -5.96875 C 2.394531 -6.300781 2.691406 -6.5625 3.078125 -6.75 C 3.460938 -6.9375 3.894531 -7.03125 4.375 -7.03125 C 5.207031 -7.03125 5.832031 -6.828125 6.25 -6.421875 C 6.664062 -6.023438 6.875 -5.382812 6.875 -4.5 L 6.875 0 Z M 5.828125 0 "/></g></g><g style="fill:#000000;fill-opacity:1;"><g transform="translate(392.2824, 215.796139)"><path style="stroke:none" d="M 0.015625 -6.90625 L 1.140625 -6.90625 L 2.640625 -2.96875 C 2.972656 -2.070312 3.179688 -1.421875 3.265625 -1.015625 L 3.3125 -1.015625 C 3.363281 -1.234375 3.476562 -1.601562 3.65625 -2.125 C 3.832031 -2.644531 4.40625 -4.238281 5.375 -6.90625 L 6.484375 -6.90625 L 3.515625 0.953125 C 3.222656 1.734375 2.878906 2.285156 2.484375 2.609375 C 2.097656 2.929688 1.617188 3.09375 1.046875 3.09375 C 0.722656 3.09375 0.40625 3.0625 0.09375 3 L 0.09375 2.15625 C 0.332031 2.207031 0.59375 2.234375 0.875 2.234375 C 1.59375 2.234375 2.101562 1.828125 2.40625 1.015625 L 2.796875 0.03125 Z M 0.015625 -6.90625 "/></g></g><g style="fill:#000000;fill-opacity:1;"><g transform="translate(398.785366, 215.796139)"><path style="stroke:none" d="M 5.359375 0 L 5.15625 -0.984375 L 5.09375 -0.984375 C 4.75 -0.546875 4.40625 -0.25 4.0625 -0.09375 C 3.71875 0.0507812 3.289062 0.125 2.78125 0.125 C 2.101562 0.125 1.566406 -0.0507812 1.171875 -0.40625 C 0.785156 -0.757812 0.59375 -1.257812 0.59375 -1.90625 C 0.59375 -3.300781 1.707031 -4.035156 3.9375 -4.109375 L 5.109375 -4.140625 L 5.109375 -4.5625 C 5.109375 -5.101562 4.988281 -5.503906 4.75 -5.765625 C 4.519531 -6.023438 4.148438 -6.15625 3.640625 -6.15625 C 3.066406 -6.15625 2.414062 -5.976562 1.6875 -5.625 L 1.375 -6.421875 C 1.707031 -6.609375 2.078125 -6.753906 2.484375 -6.859375 C 2.890625 -6.960938 3.296875 -7.015625 3.703125 -7.015625 C 4.523438 -7.015625 5.132812 -6.832031 5.53125 -6.46875 C 5.925781 -6.101562 6.125 -5.519531 6.125 -4.71875 L 6.125 0 Z M 3 -0.734375 C 3.644531 -0.734375 4.148438 -0.910156 4.515625 -1.265625 C 4.890625 -1.628906 5.078125 -2.128906 5.078125 -2.765625 L 5.078125 -3.390625 L 4.046875 -3.359375 C 3.210938 -3.328125 2.609375 -3.195312 2.234375 -2.96875 C 1.867188 -2.738281 1.6875 -2.378906 1.6875 -1.890625 C 1.6875 -1.515625 1.800781 -1.226562 2.03125 -1.03125 C 2.257812 -0.832031 2.582031 -0.734375 3 -0.734375 Z M 3 -0.734375 "/></g></g><g style="fill:#000000;fill-opacity:1;"><g transform="translate(405.962583, 215.796139)"><path style="stroke:none" d="M 3.34375 -0.734375 C 3.53125 -0.734375 3.707031 -0.742188 3.875 -0.765625 C 4.050781 -0.796875 4.1875 -0.828125 4.28125 -0.859375 L 4.28125 -0.0625 C 4.164062 -0.0078125 4 0.03125 3.78125 0.0625 C 3.5625 0.101562 3.363281 0.125 3.1875 0.125 C 1.851562 0.125 1.1875 -0.578125 1.1875 -1.984375 L 1.1875 -6.09375 L 0.203125 -6.09375 L 0.203125 -6.59375 L 1.1875 -7.03125 L 1.625 -8.5 L 2.234375 -8.5 L 2.234375 -6.90625 L 4.234375 -6.90625 L 4.234375 -6.09375 L 2.234375 -6.09375 L 2.234375 -2.03125 C 2.234375 -1.613281 2.332031 -1.289062 2.53125 -1.0625 C 2.726562 -0.84375 3 -0.734375 3.34375 -0.734375 Z M 3.34375 -0.734375 "/></g></g><g style="fill:#000000;fill-opacity:1;"><g transform="translate(410.51845, 215.796139)"><path style="stroke:none" d="M 5.359375 0 L 5.15625 -0.984375 L 5.09375 -0.984375 C 4.75 -0.546875 4.40625 -0.25 4.0625 -0.09375 C 3.71875 0.0507812 3.289062 0.125 2.78125 0.125 C 2.101562 0.125 1.566406 -0.0507812 1.171875 -0.40625 C 0.785156 -0.757812 0.59375 -1.257812 0.59375 -1.90625 C 0.59375 -3.300781 1.707031 -4.035156 3.9375 -4.109375 L 5.109375 -4.140625 L 5.109375 -4.5625 C 5.109375 -5.101562 4.988281 -5.503906 4.75 -5.765625 C 4.519531 -6.023438 4.148438 -6.15625 3.640625 -6.15625 C 3.066406 -6.15625 2.414062 -5.976562 1.6875 -5.625 L 1.375 -6.421875 C 1.707031 -6.609375 2.078125 -6.753906 2.484375 -6.859375 C 2.890625 -6.960938 3.296875 -7.015625 3.703125 -7.015625 C 4.523438 -7.015625 5.132812 -6.832031 5.53125 -6.46875 C 5.925781 -6.101562 6.125 -5.519531 6.125 -4.71875 L 6.125 0 Z M 3 -0.734375 C 3.644531 -0.734375 4.148438 -0.910156 4.515625 -1.265625 C 4.890625 -1.628906 5.078125 -2.128906 5.078125 -2.765625 L 5.078125 -3.390625 L 4.046875 -3.359375 C 3.210938 -3.328125 2.609375 -3.195312 2.234375 -2.96875 C 1.867188 -2.738281 1.6875 -2.378906 1.6875 -1.890625 C 1.6875 -1.515625 1.800781 -1.226562 2.03125 -1.03125 C 2.257812 -0.832031 2.582031 -0.734375 3 -0.734375 Z M 3 -0.734375 "/></g></g><g style="fill:#000000;fill-opacity:1;"><g transform="translate(417.695667, 215.796139)"><path style="stroke:none" d="M 5.359375 0 L 5.15625 -0.984375 L 5.09375 -0.984375 C 4.75 -0.546875 4.40625 -0.25 4.0625 -0.09375 C 3.71875 0.0507812 3.289062 0.125 2.78125 0.125 C 2.101562 0.125 1.566406 -0.0507812 1.171875 -0.40625 C 0.785156 -0.757812 0.59375 -1.257812 0.59375 -1.90625 C 0.59375 -3.300781 1.707031 -4.035156 3.9375 -4.109375 L 5.109375 -4.140625 L 5.109375 -4.5625 C 5.109375 -5.101562 4.988281 -5.503906 4.75 -5.765625 C 4.519531 -6.023438 4.148438 -6.15625 3.640625 -6.15625 C 3.066406 -6.15625 2.414062 -5.976562 1.6875 -5.625 L 1.375 -6.421875 C 1.707031 -6.609375 2.078125 -6.753906 2.484375 -6.859375 C 2.890625 -6.960938 3.296875 -7.015625 3.703125 -7.015625 C 4.523438 -7.015625 5.132812 -6.832031 5.53125 -6.46875 C 5.925781 -6.101562 6.125 -5.519531 6.125 -4.71875 L 6.125 0 Z M 3 -0.734375 C 3.644531 -0.734375 4.148438 -0.910156 4.515625 -1.265625 C 4.890625 -1.628906 5.078125 -2.128906 5.078125 -2.765625 L 5.078125 -3.390625 L 4.046875 -3.359375 C 3.210938 -3.328125 2.609375 -3.195312 2.234375 -2.96875 C 1.867188 -2.738281 1.6875 -2.378906 1.6875 -1.890625 C 1.6875 -1.515625 1.800781 -1.226562 2.03125 -1.03125 C 2.257812 -0.832031 2.582031 -0.734375 3 -0.734375 Z M 3 -0.734375 "/></g></g><g style="fill:#000000;fill-opacity:1;"><g transform="translate(424.872858, 215.796139)"><path style="stroke:none" d="M 5.828125 0 L 5.828125 -4.46875 C 5.828125 -5.03125 5.695312 -5.445312 5.4375 -5.71875 C 5.1875 -6 4.789062 -6.140625 4.25 -6.140625 C 3.519531 -6.140625 2.988281 -5.941406 2.65625 -5.546875 C 2.320312 -5.160156 2.15625 -4.519531 2.15625 -3.625 L 2.15625 0 L 1.109375 0 L 1.109375 -6.90625 L 1.953125 -6.90625 L 2.125 -5.96875 L 2.1875 -5.96875 C 2.394531 -6.300781 2.691406 -6.5625 3.078125 -6.75 C 3.460938 -6.9375 3.894531 -7.03125 4.375 -7.03125 C 5.207031 -7.03125 5.832031 -6.828125 6.25 -6.421875 C 6.664062 -6.023438 6.875 -5.382812 6.875 -4.5 L 6.875 0 Z M 5.828125 0 "/></g></g><g style="fill:#000000;fill-opacity:1;"><g transform="translate(255.195067, 189.205473)"><path style="stroke:none" d="M 5.96875 0.125 C 5 0.125 4.128906 -0.03125 3.359375 -0.34375 C 2.585938 -0.65625 1.972656 -1.117188 1.515625 -1.734375 C 1.054688 -2.347656 0.816406 -3.09375 0.796875 -3.96875 L 4.234375 -3.96875 C 4.285156 -3.476562 4.453125 -3.101562 4.734375 -2.84375 C 5.023438 -2.582031 5.40625 -2.453125 5.875 -2.453125 C 6.351562 -2.453125 6.726562 -2.5625 7 -2.78125 C 7.28125 -3 7.421875 -3.304688 7.421875 -3.703125 C 7.421875 -4.023438 7.3125 -4.296875 7.09375 -4.515625 C 6.875 -4.734375 6.601562 -4.910156 6.28125 -5.046875 C 5.957031 -5.179688 5.5 -5.335938 4.90625 -5.515625 C 4.050781 -5.773438 3.351562 -6.035156 2.8125 -6.296875 C 2.269531 -6.566406 1.800781 -6.957031 1.40625 -7.46875 C 1.019531 -7.988281 0.828125 -8.664062 0.828125 -9.5 C 0.828125 -10.738281 1.273438 -11.707031 2.171875 -12.40625 C 3.066406 -13.101562 4.234375 -13.453125 5.671875 -13.453125 C 7.128906 -13.453125 8.304688 -13.101562 9.203125 -12.40625 C 10.097656 -11.707031 10.578125 -10.734375 10.640625 -9.484375 L 7.140625 -9.484375 C 7.117188 -9.910156 6.960938 -10.242188 6.671875 -10.484375 C 6.378906 -10.734375 6.003906 -10.859375 5.546875 -10.859375 C 5.160156 -10.859375 4.847656 -10.753906 4.609375 -10.546875 C 4.367188 -10.335938 4.25 -10.039062 4.25 -9.65625 C 4.25 -9.226562 4.445312 -8.894531 4.84375 -8.65625 C 5.25 -8.414062 5.882812 -8.15625 6.75 -7.875 C 7.601562 -7.582031 8.296875 -7.304688 8.828125 -7.046875 C 9.367188 -6.785156 9.832031 -6.398438 10.21875 -5.890625 C 10.613281 -5.390625 10.8125 -4.742188 10.8125 -3.953125 C 10.8125 -3.191406 10.617188 -2.503906 10.234375 -1.890625 C 9.847656 -1.273438 9.289062 -0.785156 8.5625 -0.421875 C 7.832031 -0.0546875 6.96875 0.125 5.96875 0.125 Z M 5.96875 0.125 "/></g></g><g style="fill:#000000;fill-opacity:1;"><g transform="translate(266.807748, 189.205473)"><path style="stroke:none" d="M 5.96875 0.15625 C 4.9375 0.15625 4.007812 -0.0625 3.1875 -0.5 C 2.363281 -0.945312 1.710938 -1.578125 1.234375 -2.390625 C 0.765625 -3.210938 0.53125 -4.171875 0.53125 -5.265625 C 0.53125 -6.347656 0.769531 -7.300781 1.25 -8.125 C 1.726562 -8.957031 2.378906 -9.59375 3.203125 -10.03125 C 4.035156 -10.46875 4.96875 -10.6875 6 -10.6875 C 7.039062 -10.6875 7.972656 -10.46875 8.796875 -10.03125 C 9.628906 -9.59375 10.285156 -8.957031 10.765625 -8.125 C 11.242188 -7.300781 11.484375 -6.347656 11.484375 -5.265625 C 11.484375 -4.179688 11.238281 -3.226562 10.75 -2.40625 C 10.269531 -1.582031 9.609375 -0.945312 8.765625 -0.5 C 7.929688 -0.0625 7 0.15625 5.96875 0.15625 Z M 5.96875 -2.640625 C 6.582031 -2.640625 7.109375 -2.863281 7.546875 -3.3125 C 7.984375 -3.769531 8.203125 -4.421875 8.203125 -5.265625 C 8.203125 -6.109375 7.988281 -6.753906 7.5625 -7.203125 C 7.144531 -7.660156 6.625 -7.890625 6 -7.890625 C 5.375 -7.890625 4.851562 -7.664062 4.4375 -7.21875 C 4.019531 -6.78125 3.8125 -6.128906 3.8125 -5.265625 C 3.8125 -4.421875 4.015625 -3.769531 4.421875 -3.3125 C 4.835938 -2.863281 5.351562 -2.640625 5.96875 -2.640625 Z M 5.96875 -2.640625 "/></g></g><g style="fill:#000000;fill-opacity:1;"><g transform="translate(278.835852, 189.205473)"><path style="stroke:none" d="M 4.40625 -13.984375 L 4.40625 0 L 1.171875 0 L 1.171875 -13.984375 Z M 4.40625 -13.984375 "/></g></g><g style="fill:#000000;fill-opacity:1;"><g transform="translate(284.406159, 189.205473)"><path style="stroke:none" d="M 11.578125 -10.546875 L 11.578125 0 L 8.34375 0 L 8.34375 -1.4375 C 8.019531 -0.96875 7.578125 -0.59375 7.015625 -0.3125 C 6.453125 -0.03125 5.832031 0.109375 5.15625 0.109375 C 4.351562 0.109375 3.640625 -0.0664062 3.015625 -0.421875 C 2.398438 -0.785156 1.921875 -1.304688 1.578125 -1.984375 C 1.242188 -2.660156 1.078125 -3.457031 1.078125 -4.375 L 1.078125 -10.546875 L 4.28125 -10.546875 L 4.28125 -4.8125 C 4.28125 -4.113281 4.460938 -3.566406 4.828125 -3.171875 C 5.203125 -2.785156 5.695312 -2.59375 6.3125 -2.59375 C 6.9375 -2.59375 7.429688 -2.785156 7.796875 -3.171875 C 8.160156 -3.566406 8.34375 -4.113281 8.34375 -4.8125 L 8.34375 -10.546875 Z M 11.578125 -10.546875 "/></g></g><g style="fill:#000000;fill-opacity:1;"><g transform="translate(297.132913, 189.205473)"><path style="stroke:none" d="M 7.046875 -2.734375 L 7.046875 0 L 5.40625 0 C 4.226562 0 3.3125 -0.285156 2.65625 -0.859375 C 2.007812 -1.429688 1.6875 -2.367188 1.6875 -3.671875 L 1.6875 -7.859375 L 0.390625 -7.859375 L 0.390625 -10.546875 L 1.6875 -10.546875 L 1.6875 -13.109375 L 4.90625 -13.109375 L 4.90625 -10.546875 L 7.03125 -10.546875 L 7.03125 -7.859375 L 4.90625 -7.859375 L 4.90625 -3.625 C 4.90625 -3.3125 4.976562 -3.082031 5.125 -2.9375 C 5.28125 -2.800781 5.535156 -2.734375 5.890625 -2.734375 Z M 7.046875 -2.734375 "/></g></g><g style="fill:#000000;fill-opacity:1;"><g transform="translate(304.799172, 189.205473)"><path style="stroke:none" d="M 2.796875 -11.640625 C 2.234375 -11.640625 1.769531 -11.804688 1.40625 -12.140625 C 1.050781 -12.472656 0.875 -12.882812 0.875 -13.375 C 0.875 -13.875 1.050781 -14.289062 1.40625 -14.625 C 1.769531 -14.957031 2.234375 -15.125 2.796875 -15.125 C 3.347656 -15.125 3.800781 -14.957031 4.15625 -14.625 C 4.519531 -14.289062 4.703125 -13.875 4.703125 -13.375 C 4.703125 -12.882812 4.519531 -12.472656 4.15625 -12.140625 C 3.800781 -11.804688 3.347656 -11.640625 2.796875 -11.640625 Z M 4.40625 -10.546875 L 4.40625 0 L 1.171875 0 L 1.171875 -10.546875 Z M 4.40625 -10.546875 "/></g></g><g style="fill:#000000;fill-opacity:1;"><g transform="translate(310.36948, 189.205473)"><path style="stroke:none" d="M 5.96875 0.15625 C 4.9375 0.15625 4.007812 -0.0625 3.1875 -0.5 C 2.363281 -0.945312 1.710938 -1.578125 1.234375 -2.390625 C 0.765625 -3.210938 0.53125 -4.171875 0.53125 -5.265625 C 0.53125 -6.347656 0.769531 -7.300781 1.25 -8.125 C 1.726562 -8.957031 2.378906 -9.59375 3.203125 -10.03125 C 4.035156 -10.46875 4.96875 -10.6875 6 -10.6875 C 7.039062 -10.6875 7.972656 -10.46875 8.796875 -10.03125 C 9.628906 -9.59375 10.285156 -8.957031 10.765625 -8.125 C 11.242188 -7.300781 11.484375 -6.347656 11.484375 -5.265625 C 11.484375 -4.179688 11.238281 -3.226562 10.75 -2.40625 C 10.269531 -1.582031 9.609375 -0.945312 8.765625 -0.5 C 7.929688 -0.0625 7 0.15625 5.96875 0.15625 Z M 5.96875 -2.640625 C 6.582031 -2.640625 7.109375 -2.863281 7.546875 -3.3125 C 7.984375 -3.769531 8.203125 -4.421875 8.203125 -5.265625 C 8.203125 -6.109375 7.988281 -6.753906 7.5625 -7.203125 C 7.144531 -7.660156 6.625 -7.890625 6 -7.890625 C 5.375 -7.890625 4.851562 -7.664062 4.4375 -7.21875 C 4.019531 -6.78125 3.8125 -6.128906 3.8125 -5.265625 C 3.8125 -4.421875 4.015625 -3.769531 4.421875 -3.3125 C 4.835938 -2.863281 5.351562 -2.640625 5.96875 -2.640625 Z M 5.96875 -2.640625 "/></g></g><g style="fill:#000000;fill-opacity:1;"><g transform="translate(322.397583, 189.205473)"><path style="stroke:none" d="M 7.59375 -10.65625 C 8.820312 -10.65625 9.804688 -10.253906 10.546875 -9.453125 C 11.285156 -8.648438 11.65625 -7.550781 11.65625 -6.15625 L 11.65625 0 L 8.4375 0 L 8.4375 -5.71875 C 8.4375 -6.425781 8.253906 -6.972656 7.890625 -7.359375 C 7.523438 -7.753906 7.035156 -7.953125 6.421875 -7.953125 C 5.804688 -7.953125 5.316406 -7.753906 4.953125 -7.359375 C 4.585938 -6.972656 4.40625 -6.425781 4.40625 -5.71875 L 4.40625 0 L 1.171875 0 L 1.171875 -10.546875 L 4.40625 -10.546875 L 4.40625 -9.140625 C 4.726562 -9.609375 5.164062 -9.976562 5.71875 -10.25 C 6.28125 -10.519531 6.90625 -10.65625 7.59375 -10.65625 Z M 7.59375 -10.65625 "/></g></g><g style="fill:#000000;fill-opacity:1;"><g transform="translate(335.124337, 189.205473)"><path style="stroke:none" d="M 5.453125 0.15625 C 4.535156 0.15625 3.71875 0 3 -0.3125 C 2.28125 -0.632812 1.710938 -1.066406 1.296875 -1.609375 C 0.890625 -2.160156 0.660156 -2.773438 0.609375 -3.453125 L 3.796875 -3.453125 C 3.835938 -3.085938 4.007812 -2.789062 4.3125 -2.5625 C 4.613281 -2.34375 4.984375 -2.234375 5.421875 -2.234375 C 5.828125 -2.234375 6.140625 -2.3125 6.359375 -2.46875 C 6.578125 -2.625 6.6875 -2.828125 6.6875 -3.078125 C 6.6875 -3.378906 6.53125 -3.601562 6.21875 -3.75 C 5.90625 -3.894531 5.394531 -4.054688 4.6875 -4.234375 C 3.925781 -4.410156 3.296875 -4.59375 2.796875 -4.78125 C 2.296875 -4.976562 1.859375 -5.285156 1.484375 -5.703125 C 1.117188 -6.128906 0.9375 -6.703125 0.9375 -7.421875 C 0.9375 -8.023438 1.101562 -8.578125 1.4375 -9.078125 C 1.78125 -9.578125 2.273438 -9.96875 2.921875 -10.25 C 3.566406 -10.539062 4.335938 -10.6875 5.234375 -10.6875 C 6.554688 -10.6875 7.597656 -10.359375 8.359375 -9.703125 C 9.117188 -9.054688 9.554688 -8.191406 9.671875 -7.109375 L 6.6875 -7.109375 C 6.632812 -7.472656 6.472656 -7.757812 6.203125 -7.96875 C 5.929688 -8.1875 5.578125 -8.296875 5.140625 -8.296875 C 4.765625 -8.296875 4.472656 -8.222656 4.265625 -8.078125 C 4.066406 -7.929688 3.96875 -7.734375 3.96875 -7.484375 C 3.96875 -7.179688 4.128906 -6.953125 4.453125 -6.796875 C 4.773438 -6.648438 5.273438 -6.5 5.953125 -6.34375 C 6.734375 -6.144531 7.367188 -5.945312 7.859375 -5.75 C 8.347656 -5.550781 8.773438 -5.234375 9.140625 -4.796875 C 9.515625 -4.367188 9.710938 -3.789062 9.734375 -3.0625 C 9.734375 -2.445312 9.554688 -1.894531 9.203125 -1.40625 C 8.859375 -0.925781 8.363281 -0.546875 7.71875 -0.265625 C 7.070312 0.015625 6.316406 0.15625 5.453125 0.15625 Z M 5.453125 0.15625 "/></g></g></g></svg>